<mxfile host="app.diagrams.net" modified="2023-11-24T13:13:05.640Z" agent="Mozilla/5.0 (Windows NT 10.0; Win64; x64) AppleWebKit/537.36 (KHTML, like Gecko) Chrome/119.0.0.0 Safari/537.36" etag="FLhr4w8cLuKUf_0WHWWS" version="22.1.3" type="device">
  <diagram name="Page-1" id="PPxUhsWqXZw5gX256t3f">
    <mxGraphModel dx="1290" dy="557" grid="1" gridSize="10" guides="1" tooltips="1" connect="1" arrows="1" fold="1" page="1" pageScale="1" pageWidth="827" pageHeight="1169" math="0" shadow="0">
      <root>
        <mxCell id="0" />
        <mxCell id="1" parent="0" />
        <mxCell id="NnRBI9fLcuNYYseWDiRp-20" value="" style="whiteSpace=wrap;html=1;aspect=fixed;strokeColor=#FF4D17;fillColor=#FF4400;" vertex="1" parent="1">
          <mxGeometry x="610" y="450" width="160" height="160" as="geometry" />
        </mxCell>
        <mxCell id="NnRBI9fLcuNYYseWDiRp-28" value="" style="whiteSpace=wrap;html=1;aspect=fixed;fillColor=#41AA41;strokeColor=#B9E0A5;" vertex="1" parent="1">
          <mxGeometry x="560" y="505" width="80" height="80" as="geometry" />
        </mxCell>
        <mxCell id="NnRBI9fLcuNYYseWDiRp-19" value="" style="whiteSpace=wrap;html=1;aspect=fixed;fillColor=#812281;" vertex="1" parent="1">
          <mxGeometry x="40" y="40" width="160" height="160" as="geometry" />
        </mxCell>
        <mxCell id="NnRBI9fLcuNYYseWDiRp-25" value="" style="rounded=0;whiteSpace=wrap;html=1;fillColor=#000000;" vertex="1" parent="1">
          <mxGeometry x="90" y="80" width="640" height="480" as="geometry" />
        </mxCell>
        <mxCell id="NnRBI9fLcuNYYseWDiRp-35" value="" style="endArrow=none;html=1;rounded=0;fillColor=#FFFFFF;strokeColor=#FFFFFF;" edge="1" parent="1">
          <mxGeometry width="50" height="50" relative="1" as="geometry">
            <mxPoint x="320" y="560" as="sourcePoint" />
            <mxPoint x="320" y="80" as="targetPoint" />
            <Array as="points" />
          </mxGeometry>
        </mxCell>
      </root>
    </mxGraphModel>
  </diagram>
</mxfile>
